# AST/ASF file generated using VICON BodyLanguage
# -----------------------------------------------
:version 1.10
:name VICON
:units
  mass 1.0
  length 0.45
  angle deg
:documentation
   .ast/.asf automatically generated from VICON data using
   VICON BodyBuilder and BodyLanguage model FoxedUp or BRILLIANT.MOD
:root
   order TX TY TZ RX RY RZ
   axis XYZ
   position 0 0 0  
   orientation 0 0 0 
:bonedata
  begin
     id 1 
     name lhipjoint
     direction 0.692814 -0.645514 0.321437 
     length 2.38754 
     axis 0 0 0  XYZ
  end
  begin
     id 2 
     name lfemur
     direction 0.34202 -0.939693 0  
     length 6.41921  
     axis 0 0 20  XYZ
    dof rx ry rz
    limits (-160.0 20.0)
           (-70.0 70.0)
           (-60.0 70.0)
  end
  begin
     id 3 
     name ltibia
     direction 0.34202 -0.939693 0   
     length 6.98247   
     axis 0 0 20   XYZ
    dof rx
    limits (-10.0 170.0)
  end
  begin
     id 4 
     name lfoot
     direction 0.0947186 -0.260237 0.960888   
     length 1.83034   
     axis -90 7.62852e-016 20   XYZ
    dof rx rz
    limits (-45.0 90.0)
           (-70.0 20.0)
  end
  begin
     id 5 
     name ltoes
     direction 1.53538e-011 -4.21952e-011 1   
     length 0.920499   
     axis -90 7.62852e-016 20   XYZ
    dof rx
    limits (-90.0 20.0)
  end
  begin
     id 6 
     name rhipjoint
     direction -0.631686 -0.693949 0.345555   
     length 2.2209  
     axis 0 0 0  XYZ 
  end
  begin
     id 7 
     name rfemur
     direction -0.34202 -0.939693 0   
     length 6.49542   
     axis 0 0 -20   XYZ
    dof rx ry rz
    limits (-160.0 20.0)
           (-70.0 70.0)
           (-70.0 60.0)
  end
  begin
     id 8 
     name rtibia
     direction -0.34202 -0.939693 0   
     length 7.21712   
     axis 0 0 -20   XYZ
    dof rx
    limits (-10.0 170.0)
 end
 begin
     id 9 
     name rfoot
     direction -0.0825378 -0.226771 0.970444   
     length 1.89724  
     axis -90 -7.62852e-016 -20   XYZ
    dof rx rz
    limits (-45.0 90.0)
           (-20.0 70.0)
  end
  begin
     id 10 
     name rtoes
     direction -1.53515e-011 -4.22016e-011 1   
     length 0.955868   
     axis -90 -7.62852e-016 -20   XYZ
    dof rx
    limits (-90.0 20.0)
  end
  begin
     id 11 
     name lowerback
     direction -0.0104711 0.984802 -0.173368   
     length 1.84931   
     axis 0 0 0   XYZ
    dof rx ry rz
    limits (-20.0 45.0)
           (-30.0 30.0)
           (-30.0 30.0)
  end
  begin
     id 12 
     name upperback
     direction -0.00286433 0.999996 -0.000382853   
     length 1.85768   
     axis 0 0 0   XYZ
    dof rx ry rz
    limits (-20.0 45.0)
           (-30.0 30.0)
           (-30.0 30.0)
  end
  begin
     id 13 
     name thorax
     direction 0.00167534 0.996793 0.0800069   
     length 1.92   
     axis 0 0 0   XYZ
    dof rx ry rz
    limits (-20.0 45.0)
           (-30.0 30.0)
           (-30.0 30.0)
  end
  begin
     id 14 
     name lowerneck
     direction -0.0672491 0.995415 0.068018   
     length 1.58923   
     axis 0 0 0   XYZ
    dof rx ry rz
    limits (-20.0 45.0)
           (-30.0 30.0)
           (-30.0 30.0)
  end
  begin
     id 15 
     name upperneck
     direction 0.0958019 0.982476 -0.159884   
     length 1.60189   
     axis 0 0 0   XYZ
    dof rx ry rz
    limits (-20.0 45.0)
           (-30.0 30.0)
           (-30.0 30.0)
  end
  begin
     id 16
     name head
     direction 0.032989 0.997338 -0.0650226  
     length 1.61681  
     axis 0 0 0   XYZ
    dof rx ry rz
    limits (-20.0 45.0)
           (-30.0 30.0)
           (-30.0 30.0)
  end
  begin
     id 17 
     name lclavicle
     direction 0.954279 0.298875 -0.00496069  
     length 2.99449  
     axis 0 0 0   XYZ
    dof ry rz
    limits (-20.0 10.0)
           (0.0 20.0)
  end
  begin
     id 18 
     name lhumerus
     direction 1 -4.48985e-011 -4.2057e-027   
     length 4.79185   
     axis 180 -30 -90   XYZ
    dof rx ry rz
    limits (-60.0 90.0)
           (-90.0 90.0)
           (-90.0 90.0)
  end
  begin
     id 19
     name lradius
     direction 1 -4.48945e-011 1.15441e-028   
     length 2.65553   
     axis 180 -30 -90   XYZ
    dof rx
    limits (-10.0 170.0)
  end
  begin
     id 20
     name lwrist
     direction 1 -4.4899e-011 4.8894e-028   
     length 1.32777   
     axis -2.56392e-016 90 90   XYZ
    dof ry
    limits (-180.0 0.0)
 end
  begin
     id 21 
     name lhand
     direction 1 -4.48908e-011 9.7788e-028   
     length 0.743904   
     axis -6.23971e-016 90 90   XYZ
    dof rx rz
    limits (-90.0 90.0)
           (-45.0 45.0)
  end
  begin
     id 22 
     name lfingers
     direction 1 -4.49068e-011 1.95576e-027   
     length 0.599754   
     axis -1.24794e-015 90 90   XYZ
    dof rx
    limits (0.0 90.0)
  end
  begin
     id 23
     name lthumb
     direction 0.707107 -6.34883e-011 0.707107   
     length 0.861131   
     axis -90 45 2.85299e-015   XYZ
    dof rx rz
    limits (-45.0 45.0)
           (-45.0 45.0)
  end
  begin
     id 24 
     name rclavicle
     direction -0.957921 0.286916 0.00811568   
     length 3.06817  
     axis 0 0 0   XYZ 
    dof ry rz
    limits (-10.0 20.0)
           (-20.0 0.0)
  end
  begin
     id 25 
     name rhumerus
     direction -1 -4.48971e-011 -3.07942e-027  
     length 4.77254   
     axis 180 30 90   XYZ
    dof rx ry rz
    limits (-90.0 60.0)
           (-90.0 90.0)
           (-90.0 90.0)
  end
  begin
     id 26 
     name rradius
     direction -1 -4.48957e-011 -9.6815e-028   
     length 2.75995   
     axis 180 30 90   XYZ
    dof rx
    limits (-10.0 170.0)
  end
  begin
     id 27 
     name rwrist
     direction -1 -4.48979e-011 4.8894e-028   
     length 1.37997   
     axis -2.56392e-016 -90 -90   XYZ
    dof ry
    limits (-180.0 0.0)
  end
  begin
     id 28
     name rhand
     direction -1 -4.48906e-011 9.7788e-028   
     length 0.701619   
     axis -6.23971e-016 -90 -90   XYZ
    dof rx rz
    limits (-90.0 90.0)
           (-45.0 45.0)
  end
  begin
     id 29
     name rfingers
     direction -1 -4.49018e-011 1.95576e-027   
     length 0.565663   
     axis -1.24794e-015 -90 -90   XYZ
    dof rx
    limits (0.0 90.0)
  end
  begin
     id 30
     name rthumb
     direction -0.707107 -6.34881e-011 0.707107   
     length 0.812183   
     axis -90 -45 -2.85299e-015   XYZ
    dof rx rz
    limits (-45.0 45.0)
           (-45.0 45.0)
  end
:hierarchy
  begin
    root lhipjoint rhipjoint lowerback
    lhipjoint lfemur
    lfemur ltibia
    ltibia lfoot
    lfoot ltoes
    rhipjoint rfemur
    rfemur rtibia
    rtibia rfoot
    rfoot rtoes
    lowerback upperback
    upperback thorax
    thorax lowerneck lclavicle rclavicle
    lowerneck upperneck
    upperneck head
    lclavicle lhumerus
    lhumerus lradius
    lradius lwrist
    lwrist lhand lthumb
    lhand lfingers
    rclavicle rhumerus
    rhumerus rradius
    rradius rwrist
    rwrist rhand rthumb
    rhand rfingers
  end

#!OML:ASF F:\VICON\USERDATA\INSTALL\rory3\rory3.ASF
:FULLY-SPECIFIED
:DEGREES
343
root 1.75919 15.826 -0.169114 25.6208 -4.17141 -16.5711
lowerback 24.2777 0.637474 -13.8437
upperback 0.493881 -3.8813 -6.27211
thorax -12.7229 -1.15756 1.99673
lowerneck -16.7491 1.10343 -8.00435
upperneck -2.80066 2.58567 18.9873
head 1.65413 2.01886 7.41934
rclavicle -5.40694e-014 -1.59028e-014
rhumerus -44.2204 0.739178 -86.081
rradius 29.3699
rwrist 5.38195
rhand -14.5056 19.0344
rfingers 7.12502
rthumb 11.6416 -10.6222
lclavicle -5.40694e-014 -1.59028e-014
lhumerus 90.4498 15.0162 47.391
lradius 28.2622
lwrist -7.57093
lhand -5.31104 20.3927
lfingers 7.12502
lthumb 20.4945 49.331
rfemur -30.1266 10.1825 23.6599
rtibia 12.6444
rfoot -3.83488 -5.59492
rtoes -6.85301
lfemur -45.2384 -1.2967 -2.55882
ltibia 46.7221
lfoot -19.9607 9.94131
ltoes -9.85534
344
root 1.75593 15.8258 -0.170542 25.5246 -4.13466 -16.5987
lowerback 24.3313 0.676626 -13.866
upperback 0.540196 -3.83559 -6.2379
thorax -12.699 -1.13694 2.03486
lowerneck -16.7894 1.05543 -8.12565
upperneck -2.6672 2.52317 19.1215
head 1.70787 1.99936 7.48479
rclavicle 2.54444e-014 5.08889e-014
rhumerus -44.0831 0.863079 -86.0563
rradius 29.3117
rwrist 5.32762
rhand -14.4857 19.0874
rfingers 7.12502
rthumb 11.6607 -10.5681
lclavicle 2.54444e-014 5.08889e-014
lhumerus 90.4138 15.0444 47.4129
lradius 28.3307
lwrist -7.54381
lhand -5.4443 20.4349
lfingers 7.12502
lthumb 20.3665 49.387
rfemur -30.0149 10.3133 23.6657
rtibia 12.6258
rfoot -3.80353 -5.7663
rtoes -7.19252
lfemur -45.1576 -1.33266 -2.49993
ltibia 46.7269
lfoot -19.9403 9.94082
ltoes -9.92089
345
root 1.75076 15.8253 -0.171677 25.1675 -4.1052 -16.648
lowerback 24.6201 0.76337 -13.8607
upperback 0.657679 -3.75753 -6.20824
thorax -12.7275 -1.10239 2.04683
lowerneck -16.8246 0.997834 -8.1665
upperneck -2.58103 2.43958 19.1611
head 1.75041 1.96367 7.50274
rclavicle 7.95139e-014 2.8625e-014
rhumerus -44.0136 0.876095 -85.9966
rradius 29.2793
rwrist 5.25464
rhand -14.5097 19.385
rfingers 7.12502
rthumb 11.6376 -10.2718
lclavicle 7.95139e-014 2.8625e-014
lhumerus 90.4263 15.0461 47.4994
lradius 28.2971
lwrist -7.5988
lhand -5.60443 20.5232
lfingers 7.12502
lthumb 20.2126 49.4916
rfemur -29.6475 10.4996 23.7277
rtibia 12.6729
rfoot -3.92631 -5.97952
rtoes -7.0171
lfemur -44.7706 -1.39347 -2.44679
ltibia 46.7167
lfoot -19.9495 9.88333
ltoes -9.97732
346
root 1.74976 15.8252 -0.172296 24.951 -4.06502 -16.6567
lowerback 24.8 0.821551 -13.8438
upperback 0.734153 -3.7009 -6.20128
thorax -12.7438 -1.07881 2.03069
lowerneck -16.8656 0.949681 -8.19532
upperneck -2.46914 2.36259 19.244
head 1.80102 1.93398 7.53384
rclavicle -9.54166e-015 0
rhumerus -44.055 0.702391 -85.8949
rradius 29.3489
rwrist 5.33045
rhand -14.6776 19.7954
rfingers 7.12502
rthumb 11.4757 -9.87052
lclavicle -9.54166e-015 0
lhumerus 90.4526 15.0235 47.5449
lradius 28.2601
lwrist -7.62725
lhand -5.70955 20.6208
lfingers 7.12502
lthumb 20.1115 49.5999
rfemur -29.4273 10.5131 23.7756
rtibia 12.7106
rfoot -4.00748 -6.04224
rtoes -6.94818
lfemur -44.5498 -1.48744 -2.42639
ltibia 46.7158
lfoot -19.9541 9.87561
ltoes -10.2141
347
root 1.74978 15.8262 -0.173496 24.9216 -4.05463 -16.5446
lowerback 24.8341 0.857514 -13.9389
upperback 0.757695 -3.68733 -6.2229
thorax -12.7329 -1.06901 2.05393
lowerneck -16.8832 0.911987 -8.23371
upperneck -2.39634 2.30637 19.3387
head 1.83364 1.91268 7.5706
rclavicle -2.8625e-014 -6.67916e-014
rhumerus -44.0844 0.657895 -85.848
rradius 29.4636
rwrist 5.36864
rhand -14.7443 19.7672
rfingers 7.12502
rthumb 11.4114 -9.90228
lclavicle -2.8625e-014 -6.67916e-014
lhumerus 90.4716 15.0248 47.5144
lradius 28.2498
lwrist -7.58319
lhand -5.73209 20.6271
lfingers 7.12502
lthumb 20.0899 49.6084
rfemur -29.3986 10.5039 23.6534
rtibia 12.6691
rfoot -3.98264 -6.11635
rtoes -6.85297
lfemur -44.5607 -1.56922 -2.53181
ltibia 46.7354
lfoot -19.915 9.93472
ltoes -10.7253
348
root 1.74811 15.823 -0.179061 24.9858 -4.01502 -16.611
lowerback 24.8514 0.869572 -13.9234
upperback 0.746826 -3.66614 -6.17846
thorax -12.7555 -1.05684 2.08949
lowerneck -16.9143 0.886623 -8.3157
upperneck -2.32118 2.27512 19.4683
head 1.86538 1.9061 7.62854
rclavicle -4.13472e-014 -3.49861e-014
rhumerus -43.997 0.741257 -85.8571
rradius 29.4707
rwrist 5.32297
rhand -14.6595 19.5465
rfingers 7.12502
rthumb 11.4932 -10.1184
lclavicle -4.13472e-014 -3.49861e-014
lhumerus 90.5086 15.0581 47.5919
lradius 28.2108
lwrist -7.67491
lhand -5.70945 20.5693
lfingers 7.12502
lthumb 20.1116 49.5484
rfemur -29.4803 10.6837 23.6558
rtibia 12.6093
rfoot -3.89193 -6.34069
rtoes -7.01064
lfemur -44.704 -1.57191 -2.41045
ltibia 46.7898
lfoot -19.8544 9.98415
ltoes -10.5809
349
root 1.74694 15.8189 -0.182434 25.0537 -3.92072 -16.8758
lowerback 24.8441 0.868401 -13.692
upperback 0.735675 -3.59177 -6.09847
thorax -12.7803 -1.03279 2.02987
lowerneck -16.9504 0.841359 -8.37656
upperneck -2.20861 2.20668 19.5931
head 1.91455 1.8822 7.67978
rclavicle -8.90555e-014 -1.90833e-014
rhumerus -43.9353 0.867949 -85.8935
rradius 29.5367
rwrist 5.14038
rhand -14.4495 19.4054
rfingers 7.12502
rthumb 11.6957 -10.2481
lclavicle -8.90555e-014 -1.90833e-014
lhumerus 90.4989 15.0843 47.5108
lradius 28.2085
lwrist -7.62917
lhand -5.68423 20.5802
lfingers 7.12502
lthumb 20.1359 49.5567
rfemur -29.5455 10.9584 23.8525
rtibia 12.5836
rfoot -3.90676 -6.5986
rtoes -6.54764
lfemur -44.8263 -1.52779 -2.0621
ltibia 46.8645
lfoot -19.8359 9.91021
ltoes -10.4311
350
root 1.74712 15.8173 -0.182112 25.0708 -3.82351 -17.0156
lowerback 24.8138 0.855921 -13.5433
upperback 0.757738 -3.54989 -6.04915
thorax -12.7461 -1.02386 1.99147
lowerneck -16.9216 0.801188 -8.48039
upperneck -2.19788 2.16434 19.7809
head 1.92033 1.86681 7.75834
rclavicle -5.725e-014 -5.725e-014
rhumerus -43.7879 1.01918 -85.901
rradius 29.5154
rwrist 5.11638
rhand -14.2714 19.3144
rfingers 7.12502
rthumb 11.8674 -10.3293
lclavicle -5.725e-014 -5.725e-014
lhumerus 90.4486 15.1228 47.3695
lradius 28.2214
lwrist -7.57094
lhand -5.67655 20.6258
lfingers 7.12502
lthumb 20.1433 49.6015
rfemur -29.502 11.0077 24.0016
rtibia 12.4944
rfoot -3.92477 -6.66535
rtoes -6.19925
lfemur -44.8902 -1.53976 -1.87192
ltibia 46.9304
lfoot -19.792 9.84333
ltoes -10.378
351
root 1.74682 15.8179 -0.182244 25.0704 -3.7797 -17.0129
lowerback 24.7705 0.850908 -13.5261
upperback 0.808408 -3.53566 -6.05014
thorax -12.664 -1.0249 1.97679
lowerneck -16.8888 0.753076 -8.68149
upperneck -2.27519 2.14106 20.0657
head 1.89731 1.86139 7.88705
rclavicle 2.54444e-014 9.54166e-015
rhumerus -43.5279 1.14106 -85.907
rradius 29.3798
rwrist 5.23687
rhand -14.259 19.1968
rfingers 7.12502
rthumb 11.8794 -10.4462
lclavicle 2.54444e-014 9.54166e-015
lhumerus 90.4349 15.2061 47.1951
lradius 28.2557
lwrist -7.43082
lhand -5.66103 20.6554
lfingers 7.12502
lthumb 20.1582 49.6295
rfemur -29.4652 10.9851 24.0152
rtibia 12.4176
rfoot -3.85056 -6.70204
rtoes -6.433
lfemur -44.9212 -1.56862 -1.85148
ltibia 46.9648
lfoot -19.8418 9.75788
ltoes -9.95741
352
root 1.7496 15.8189 -0.180065 25.2098 -3.74568 -17.0339
lowerback 24.6637 0.824797 -13.4863
upperback 0.773919 -3.54108 -6.03979
thorax -12.6464 -1.02947 1.96667
lowerneck -16.8947 0.729802 -8.78377
upperneck -2.22684 2.1184 20.2279
head 1.91653 1.85815 7.95967
rclavicle 1.27222e-014 8.5875e-014
rhumerus -43.4259 1.21888 -85.9021
rradius 29.3604
rwrist 5.26659
rhand -14.2026 19.1281
rfingers 7.12502
rthumb 11.9338 -10.5118
lclavicle 1.27222e-014 8.5875e-014
lhumerus 90.3439 15.2827 46.9736
lradius 28.2759
lwrist -7.26055
lhand -5.62539 20.6355
lfingers 7.12502
lthumb 20.1924 49.606
rfemur -29.6048 10.8872 24.0468
rtibia 12.4168
rfoot -3.84818 -6.62936
rtoes -6.22166
lfemur -45.062 -1.60117 -1.79823
ltibia 46.9622
lfoot -19.8751 9.7722
ltoes -9.6554
353
root 1.7575 15.8211 -0.174252 25.5167 -3.74574 -16.9808
lowerback 24.411 0.789349 -13.4691
upperback 0.678099 -3.54992 -6.05724
thorax -12.6214 -1.03425 1.93482
lowerneck -16.846 0.707774 -8.83545
upperneck -2.19617 2.08982 20.2941
head 1.92224 1.8449 7.98874
rclavicle 9.54166e-015 6.99722e-014
rhumerus -43.4441 1.2528 -85.8777
rradius 29.4214
rwrist 5.19178
rhand -14.1006 19.1425
rfingers 7.12502
rthumb 12.0321 -10.4916
lclavicle 9.54166e-015 6.99722e-014
lhumerus 90.359 15.2362 47.0225
lradius 28.2432
lwrist -7.26553
lhand -5.48784 20.565
lfingers 7.12502
lthumb 20.3246 49.5215
rfemur -29.9293 10.6347 24.0086
rtibia 12.4398
rfoot -3.83406 -6.41497
rtoes -6.01232
lfemur -45.3533 -1.64383 -1.83837
ltibia 46.9421
lfoot -19.9149 9.86401
ltoes -9.38962
354
root 1.76149 15.8237 -0.170694 25.6747 -3.73066 -16.9113
lowerback 24.2708 0.790694 -13.4666
upperback 0.643183 -3.52787 -6.07321
thorax -12.5892 -1.02625 1.90512
lowerneck -16.793 0.671041 -8.90623
upperneck -2.23089 2.05402 20.3732
head 1.90947 1.82597 8.02433
rclavicle 7.95139e-014 4.77083e-014
rhumerus -43.4132 1.21619 -85.8129
rradius 29.4354
rwrist 5.25153
rhand -14.0155 19.2441
rfingers 7.12502
rthumb 12.1142 -10.3852
lclavicle 7.95139e-014 4.77083e-014
lhumerus 90.4129 15.1601 47.0992
lradius 28.2376
lwrist -7.25828
lhand -5.46051 20.6568
lfingers 7.12502
lthumb 20.3509 49.6105
rfemur -30.1039 10.451 23.9606
rtibia 12.4617
rfoot -3.8212 -6.26815
rtoes -5.61481
lfemur -45.5209 -1.7111 -1.89223
ltibia 46.9187
lfoot -19.8606 9.93878
ltoes -9.43262
355
root 1.75747 15.8242 -0.172328 25.5391 -3.71517 -16.9249
lowerback 24.3818 0.81147 -13.4859
upperback 0.646793 -3.5278 -6.07738
thorax -12.6462 -1.02181 1.91224
lowerneck -16.6521 0.75039 -8.76219
upperneck -2.22384 2.12983 20.3361
head 1.87827 1.85495 7.98629
rclavicle -4.13472e-014 -5.725e-014
rhumerus -43.4622 1.42336 -85.9452
rradius 29.4585
rwrist 5.24648
rhand -14.1107 19.2096
rfingers 7.12502
rthumb 12.0224 -10.4251
lclavicle -4.13472e-014 -5.725e-014
lhumerus 90.3127 15.1439 46.944
lradius 28.2747
lwrist -7.18062
lhand -5.46498 20.7506
lfingers 7.12502
lthumb 20.3466 49.7048
rfemur -29.9858 10.5667 23.9667
rtibia 12.5039
rfoot -3.84754 -6.41232
rtoes -5.72677
lfemur -45.388 -1.72455 -1.87009
ltibia 46.9071
lfoot -19.8233 9.94047
ltoes -9.85032
356
root 1.74894 15.8221 -0.178407 25.2193 -3.69062 -16.9378
lowerback 24.7232 0.844828 -13.5665
upperback 0.626671 -3.57771 -6.08983
thorax -12.8515 -1.02642 1.96225
lowerneck -16.3381 0.921022 -8.40448
upperneck -2.2116 2.28717 20.1368
head 1.80911 1.90949 7.8548
rclavicle 5.08889e-014 3.49861e-014
rhumerus -43.6639 1.78131 -86.2153
rradius 29.5345
rwrist 5.08328
rhand -14.2519 19.0661
rfingers 7.12502
rthumb 11.8862 -10.5765
lclavicle 5.08889e-014 3.49861e-014
lhumerus 90.1242 15.0966 46.7207
lradius 28.2573
lwrist -7.18218
lhand -5.45492 20.7547
lfingers 7.12502
lthumb 20.3563 49.7078
rfemur -29.6686 10.9191 23.9226
rtibia 12.52
rfoot -3.90735 -6.80643
rtoes -5.81091
lfemur -45.0832 -1.76085 -1.8455
ltibia 46.8959
lfoot -19.7795 9.94653
ltoes -10.3787
357
root 1.7441 15.8201 -0.182626 25.0579 -3.63884 -16.9524
lowerback 24.9177 0.850964 -13.5579
upperback 0.6126 -3.60803 -6.09751
thorax -12.9744 -1.03277 1.96092
lowerneck -16.2148 1.02534 -8.20663
upperneck -2.10001 2.37413 20.0939
head 1.81031 1.9487 7.8075
rclavicle 5.40694e-014 6.36111e-015
rhumerus -43.7279 1.9715 -86.3474
rradius 29.5451
rwrist 4.93644
rhand -14.0355 18.7793
rfingers 7.12502
rthumb 12.0949 -10.8511
lclavicle 5.40694e-014 6.36111e-015
lhumerus 89.967 15.0996 46.4009
lradius 28.2984
lwrist -6.99928
lhand -5.47759 20.7922
lfingers 7.12502
lthumb 20.3345 49.7476
rfemur -29.4936 11.096 23.917
rtibia 12.4966
rfoot -3.95001 -7.0446
rtoes -5.90987
lfemur -44.9476 -1.78461 -1.81062
ltibia 46.901
lfoot -19.7262 9.90654
ltoes -10.6356
